<svg width="90" height="90" viewBox="0 0 90 90" fill="none" xmlns="http://www.w3.org/2000/svg">
<path d="M50.125 39.5H37.4688H36.0625V38.0938V25.4375H22V64.8125H50.125V54.9688H52.9375V64.8125V67.625H50.125H22H19.1875V64.8125V25.4375V22.625H22H39.5781L52.9375 35.9844V45.125H50.125V39.5ZM49.5977 36.6875L38.875 25.9648V36.6875H49.5977ZM60.2324 41.3457L68.6699 49.7832L69.6367 50.75L68.6699 51.8047L60.2324 60.2422L59.2656 61.209L57.2441 59.1875L58.2109 58.2207L64.2754 52.1562H37.4688H36.0625V49.3438H37.4688H64.2754L58.2109 43.3672L57.2441 42.3125L59.2656 40.3789L60.2324 41.3457Z" fill="white"/>
</svg>
