<svg width="173" height="36" viewBox="0 0 173 36" fill="none" xmlns="http://www.w3.org/2000/svg">
<path d="M45.0351 28.1385C44.1663 28.0013 43.3823 27.7988 42.6703 27.544V24.526C44.3557 25.0747 45.9497 25.3425 47.4587 25.3425C48.7717 25.3425 49.7451 25.0878 50.3918 24.5782C51.032 24.0687 51.3521 23.3305 51.3521 22.3506C51.3521 21.8019 51.2541 21.3446 51.0582 20.9657C50.8622 20.5868 50.5355 20.2537 50.0783 19.9597C49.621 19.6657 49.0004 19.3848 48.2034 19.117L46.923 18.6858C43.7939 17.621 42.2261 15.6351 42.2261 12.7412C42.2261 11.4477 42.507 10.3372 43.0753 9.40953C43.6436 8.4819 44.4864 7.76985 45.61 7.27337C46.7336 6.78342 48.125 6.53519 49.7712 6.53519C50.5159 6.53519 51.2607 6.58092 51.9923 6.6789C52.724 6.77689 53.3707 6.90754 53.926 7.08392V10.0889C52.7697 9.7231 51.4828 9.54018 50.0717 9.54018C47.217 9.54018 45.7863 10.5201 45.7863 12.4733C45.7863 13.0025 45.8778 13.4401 46.0542 13.7929C46.2306 14.1457 46.5311 14.4658 46.9426 14.7401C47.3607 15.021 47.9356 15.2823 48.6738 15.5306L49.9541 15.9617C51.5808 16.5105 52.8154 17.2683 53.6581 18.2416C54.4943 19.215 54.9189 20.4823 54.9189 22.0436C54.9189 23.3566 54.6315 24.4868 54.0501 25.4275C53.4687 26.3682 52.626 27.0933 51.5154 27.5963C50.4049 28.0993 49.0657 28.3475 47.5044 28.3475C46.727 28.3475 45.9039 28.2822 45.0351 28.1385Z" fill="#777582"/>
<path d="M57.2899 10.2974C56.9698 9.99686 56.813 9.57223 56.813 9.0235C56.813 8.47476 56.9698 8.05014 57.2899 7.74311C57.61 7.44261 58.0803 7.28583 58.7009 7.28583C59.3215 7.28583 59.7984 7.44261 60.1185 7.74964C60.4386 8.05667 60.6019 8.48129 60.6019 9.0235C60.6019 9.57223 60.4451 9.99686 60.125 10.2974C59.8049 10.5979 59.3346 10.7481 58.7009 10.7481C58.0803 10.7481 57.61 10.5979 57.2899 10.2974Z" fill="#777582"/>
<path d="M60.5682 12.3958H57.0732V28.0741H60.5682V12.3958Z" fill="#777582"/>
<path d="M63.6655 12.3932H66.566L66.8273 14.0721H67.0168C67.5132 13.4515 68.1012 12.9746 68.774 12.6415C69.4469 12.3083 70.1916 12.145 71.0082 12.145C72.3408 12.145 73.3991 12.5631 74.1765 13.3993C74.9539 14.2354 75.3458 15.5877 75.3458 17.4429V28.0649H71.8705V17.7108C71.8705 16.8289 71.6941 16.2017 71.3413 15.8294C70.9886 15.457 70.4856 15.2676 69.8323 15.2676C69.3358 15.2676 68.8328 15.3917 68.3363 15.6334C67.8399 15.8751 67.4414 16.2475 67.1409 16.7505V28.078H63.6655V12.3932V12.3932Z" fill="#777582"/>
<path d="M82.5064 31.8886C83.8391 31.8886 84.819 31.5816 85.4526 30.9675C86.0863 30.3535 86.3999 29.3213 86.3999 27.8646V26.4862H86.23C85.8968 27.0349 85.433 27.4661 84.8516 27.7927C84.2702 28.1193 83.6039 28.2826 82.8526 28.2826C81.912 28.2826 81.0562 28.0213 80.2788 27.4987C79.5014 26.9761 78.8743 26.1334 78.4039 24.9772C77.9271 23.8209 77.6919 22.338 77.6919 20.535C77.6919 17.739 78.319 15.6421 79.5668 14.2572C80.8145 12.8657 82.7089 12.1667 85.2501 12.1602C86.034 12.1602 86.8441 12.2255 87.6802 12.3627C88.5164 12.4999 89.2481 12.6763 89.8817 12.9114V27.2962C89.8817 29.8897 89.2938 31.7776 88.131 32.9469C86.9617 34.1163 85.1848 34.6977 82.8004 34.6977C82.6763 34.6977 82.6305 34.6977 82.5064 34.6911V31.8886ZM85.4657 25.049C85.8642 24.853 86.1777 24.5787 86.4064 24.239V15.0411C85.9295 14.9365 85.4461 14.8843 84.9692 14.8843C83.7345 14.8843 82.8069 15.2893 82.1863 16.1059C81.5657 16.9225 81.2587 18.2878 81.2587 20.2149C81.2587 21.5541 81.3763 22.6058 81.618 23.3571C81.8597 24.1083 82.1929 24.6309 82.6175 24.9184C83.0421 25.2058 83.5843 25.3495 84.2376 25.3495C84.6556 25.3495 85.0672 25.2515 85.4657 25.049Z" fill="#777582"/>
<path d="M92.9839 28.0795V4.84961H96.4592V28.073H92.9839V28.0795Z" fill="#777582"/>
<path d="M110.65 21.3494H102.445C102.484 22.4142 102.641 23.2439 102.922 23.8514C103.203 24.4524 103.628 24.8836 104.203 25.1449C104.777 25.4062 105.542 25.5303 106.502 25.5303C107.488 25.5303 108.632 25.3474 109.925 24.9815V27.8102C109.226 27.9996 108.573 28.1433 107.965 28.2283C107.358 28.3132 106.731 28.3589 106.09 28.3589C104.425 28.3589 103.066 28.0845 102.014 27.5293C100.962 26.974 100.185 26.1052 99.6755 24.9162C99.1659 23.7208 98.9111 22.1464 98.9111 20.1801C98.9111 17.4952 99.4403 15.4897 100.499 14.1505C101.557 12.8113 103.053 12.145 104.993 12.145C108.769 12.145 110.657 14.856 110.657 20.2781V21.3494H110.65ZM103.628 14.9409C103.268 15.2088 102.981 15.6791 102.772 16.352C102.563 17.0248 102.452 17.9459 102.439 19.1283H107.371C107.364 17.9525 107.26 17.0248 107.07 16.352C106.881 15.6791 106.613 15.2088 106.267 14.9409C105.921 14.6731 105.489 14.5359 104.973 14.5359C104.438 14.5359 103.987 14.6731 103.628 14.9409Z" fill="#777582"/>
<path d="M115.285 28.1394C114.416 28.0022 113.632 27.7997 112.92 27.5449V24.5268C114.606 25.0756 116.2 25.3434 117.709 25.3434C119.022 25.3434 119.995 25.0886 120.642 24.5791C121.282 24.0695 121.602 23.3314 121.602 22.3515C121.602 21.8027 121.504 21.3454 121.308 20.9666C121.112 20.5877 120.786 20.2545 120.328 19.9605C119.871 19.6666 119.25 19.3857 118.453 19.1178L117.173 18.6867C114.037 17.6153 112.476 15.6294 112.476 12.7355C112.476 11.442 112.757 10.3315 113.325 9.40386C113.894 8.47623 114.736 7.76418 115.86 7.2677C116.984 6.77775 118.375 6.52951 120.021 6.52951C120.766 6.52951 121.511 6.57524 122.242 6.67323C122.974 6.77122 123.621 6.90187 124.176 7.07825V10.0832C123.02 9.71742 121.733 9.53451 120.322 9.53451C117.467 9.53451 116.036 10.5144 116.036 12.4676C116.036 12.9968 116.128 13.4345 116.304 13.7872C116.481 14.14 116.781 14.4601 117.193 14.7345C117.611 15.0154 118.186 15.2767 118.924 15.5249L120.204 15.9561C121.831 16.5048 123.065 17.2626 123.908 18.2359C124.744 19.2093 125.169 20.4766 125.169 22.0379C125.169 23.351 124.881 24.4811 124.3 25.4218C123.719 26.3625 122.876 27.0876 121.765 27.5906C120.655 28.0936 119.316 28.3419 117.754 28.3419C116.97 28.3484 116.147 28.2831 115.285 28.1394Z" fill="#777582"/>
<path d="M135.399 25.1728V28.0733C134.641 28.2562 133.857 28.3476 133.04 28.3476C131.401 28.3476 130.16 27.9165 129.304 27.0477C128.448 26.1788 128.023 24.8004 128.023 22.9191V15.1714H125.626V12.395H128.023L128.644 6.80313H131.505V12.395H135.268V15.1714H131.505V22.501C131.505 23.2196 131.584 23.7879 131.747 24.1994C131.91 24.611 132.165 24.905 132.511 25.0813C132.858 25.2577 133.321 25.3492 133.903 25.3492C134.256 25.3492 134.752 25.2904 135.399 25.1728Z" fill="#777582"/>
<path d="M138.039 26.4021C136.955 25.0956 136.413 23.0574 136.413 20.3007C136.413 14.8655 138.51 12.1545 142.697 12.1545C144.709 12.1545 146.257 12.8208 147.348 14.1535C148.433 15.4861 148.981 17.5243 148.981 20.2745C148.981 25.6705 146.884 28.3684 142.703 28.3684C140.678 28.3684 139.124 27.7086 138.039 26.4021ZM144.186 25.2458C144.572 24.9388 144.872 24.3901 145.088 23.6062C145.303 22.8222 145.401 21.7313 145.401 20.3268C145.401 18.8896 145.297 17.766 145.088 16.9625C144.879 16.159 144.578 15.5972 144.18 15.2836C143.781 14.9701 143.291 14.8067 142.697 14.8067C142.096 14.8067 141.593 14.9635 141.201 15.2771C140.809 15.5907 140.509 16.1394 140.299 16.9364C140.09 17.7334 139.986 18.8308 139.986 20.2419C139.986 21.6725 140.09 22.7831 140.299 23.5735C140.509 24.3705 140.809 24.9192 141.201 25.2328C141.586 25.5463 142.089 25.7031 142.703 25.7031C143.304 25.7097 143.794 25.5529 144.186 25.2458Z" fill="#777582"/>
<path d="M151.404 12.3953H154.279L154.553 14.551H154.723C155.108 13.7475 155.624 13.153 156.284 12.7741C156.937 12.3953 157.682 12.2058 158.518 12.2058C158.851 12.2058 159.185 12.2319 159.511 12.2907V15.5374C159.185 15.4786 158.786 15.4525 158.303 15.4525C157.604 15.4525 156.944 15.6158 156.317 15.9359C155.696 16.256 155.213 16.7002 154.88 17.2686V28.0735H151.404V12.3953Z" fill="#777582"/>
<path d="M172.086 21.3494H163.881C163.921 22.4142 164.077 23.2439 164.358 23.8514C164.639 24.4524 165.064 24.8836 165.639 25.1449C166.213 25.4062 166.978 25.5303 167.938 25.5303C168.924 25.5303 170.068 25.3474 171.361 24.9815V27.8102C170.662 27.9996 170.009 28.1433 169.401 28.2283C168.794 28.3132 168.167 28.3589 167.526 28.3589C165.861 28.3589 164.502 28.0845 163.45 27.5293C162.398 26.974 161.621 26.1052 161.111 24.9162C160.602 23.7208 160.347 22.1464 160.347 20.1801C160.347 17.4952 160.876 15.4897 161.935 14.1505C162.993 12.8113 164.489 12.145 166.429 12.145C170.205 12.145 172.093 14.856 172.093 20.2781V21.3494H172.086ZM165.064 14.9409C164.704 15.2088 164.417 15.6791 164.208 16.352C163.999 17.0248 163.888 17.9459 163.875 19.1283H168.807C168.8 17.9525 168.696 17.0248 168.506 16.352C168.317 15.6791 168.049 15.2088 167.703 14.9409C167.357 14.6731 166.925 14.5359 166.409 14.5359C165.874 14.5359 165.423 14.6731 165.064 14.9409Z" fill="#777582"/>
<path d="M18.8138 0C22.6707 1.07269 26.1847 3.77589 27.6418 7.07979C29.8702 12.4433 29.3559 19.2227 26.9133 23.256C24.8563 26.5599 21.6851 28.3191 18.0425 28.2762C12.3857 28.2333 7.80037 23.728 7.75751 18.0642C7.75751 12.4003 12.2143 7.7234 18.0425 7.7234C18.9853 7.7234 20.3446 7.85415 21.8874 8.49777C21.8874 8.49777 20.7783 7.84084 17.9298 7.39955C9.74469 6.32686 0.0866427 12.5291 2.31505 26.8174C5.40054 32.3096 11.3144 36.0425 18.0425 35.9996C27.9418 35.9567 36.0412 27.8472 35.9983 17.8925C35.9983 8.36702 28.2417 0.257447 18.8138 0Z" fill="#777582"/>
<path d="M25.5425 7.59428C24.1711 4.71946 21.3428 2.44535 17.8716 1.54428C17.1002 1.32974 16.286 1.24393 15.3861 1.20102C14.0576 1.20102 12.772 1.37266 11.4435 1.71592C8.14373 2.7028 5.82961 4.63364 4.45828 6.13541C2.70127 8.15208 1.54421 10.2546 0.858543 12.357C0.858543 12.4 0.815689 12.4429 0.815689 12.5287C0.772835 12.7003 0.601419 13.2152 0.601419 13.3439C0.558565 13.4297 0.558565 13.5585 0.515711 13.6443C0.472857 13.8159 0.430003 13.9875 0.387149 14.1592C0.387149 14.2021 0.387149 14.245 0.344295 14.2879C-0.769909 19.823 1.08105 24.7902 2.19526 26.6352C2.47394 27.0967 2.70279 27.4818 2.93215 27.835C0.40376 14.1045 7.67233 7.55138 15.9432 7.37974C20.2714 7.29393 24.5997 9.05314 26.6995 12.5716C26.571 10.6407 26.4424 9.56804 25.5425 7.59428Z" fill="#777582"/>
</svg>
