<?xml version="1.0" encoding="UTF-8"?>
<svg xmlns="http://www.w3.org/2000/svg" version="1.1" viewBox="0 0 173 36">
  <defs>
    <style>
      .cls-1 {
        fill: #767676;
      }
    </style>
  </defs>
  <!-- Generator: Adobe Illustrator 28.6.0, SVG Export Plug-In . SVG Version: 1.2.0 Build 709)  -->
  <g>
    <g id="Layer_1">
      <g>
        <path class="cls-1" d="M43.9,21.7h0c0-.1,2.5-.1,2.5-.1h0c0,2,1.1,3.5,4.4,3.5h.2c2.6,0,3.9-1.1,3.9-2.7h0c0-1.7-.9-2.3-2.5-2.7l-4-1c-2.4-.6-4-1.9-4-4.5v-.2c0-2.9,2.3-4.8,6.2-4.8h.2c3.8,0,6.1,2.1,6.1,4.9h0c0,.1-2.5.1-2.5.1h0c0-1.6-1.2-3-3.6-3h-.2c-2.5,0-3.8,1.1-3.8,2.8h0c0,1.4.8,2.2,2.5,2.6l4,1c2.4.6,4,1.8,4,4.5v.2c0,3-2.3,4.9-6.4,4.9h-.2c-5,0-6.9-2.2-6.9-5.4h0Z"/>
        <path class="cls-1" d="M59.4,9.3h2.3v2.6h-2.3v-2.6ZM59.4,14.3h2.3v12.7h-2.3v-12.7Z"/>
        <path class="cls-1" d="M63.9,14.3h2.2v2c1.1-1.7,2.1-2.2,3.9-2.2h.2c2.6,0,4.1,1.4,4.1,4.6v8.2h-2.3v-7.9c0-2.2-.8-3.1-2.4-3.1h-.2c-2,0-3.1,1.5-3.1,3.7v7.3h-2.3v-12.7h0Z"/>
        <path class="cls-1" d="M76.3,27.9h2.3c0,1.3,1.1,1.8,3.2,1.8h0c1.9,0,3.1-.6,3.1-2.3v-2.9c-1,1.5-1.9,2-3.6,2h-.2c-3.1,0-5-2.4-5-6.1v-.2c0-3.7,1.9-6.1,5-6.1h.2c1.9,0,2.8.5,3.7,2.2v-2h2.2v13.1c0,2.9-2.1,4-5.5,4h0c-4.1,0-5.4-1.5-5.4-3.4h0ZM81.7,24.7h.2c2.1,0,3.2-1.4,3.2-4.3v-.2c0-2.9-1.1-4.3-3.2-4.3h-.2c-2,0-3.2,1.4-3.2,4.3v.2c0,2.9,1.1,4.3,3.2,4.3Z"/>
        <path class="cls-1" d="M89.5,9.3h2.3v17.6h-2.3V9.3Z"/>
        <path class="cls-1" d="M93.7,20.7v-.2c0-4.1,2-6.4,5.6-6.4h.2c3.4,0,5.3,2,5.3,6.1s0,.7,0,.9h-8.7c0,2.8,1.2,4.2,3.3,4.2h.2c2.2,0,2.7-1.4,2.7-2.1h0c0-.1,2.4-.1,2.4-.1h0c0,1.7-1.1,4-5,4h-.2c-3.7,0-5.7-2.3-5.7-6.4ZM102.5,19.4h0c0-2.5-1.1-3.6-2.9-3.6h-.2c-1.8,0-3,1.1-3.2,3.6h6.4Z"/>
        <path class="cls-1" d="M106.5,21.7h0c0-.1,2.5-.1,2.5-.1h0c0,2,1.1,3.5,4.4,3.5h.2c2.6,0,3.9-1.1,3.9-2.7h0c0-1.7-.9-2.3-2.5-2.7l-4-1c-2.4-.6-4-1.9-4-4.5v-.2c0-2.9,2.3-4.8,6.2-4.8h.2c3.8,0,6.1,2.1,6.1,4.9h0c0,.1-2.5.1-2.5.1h0c0-1.6-1.2-3-3.6-3h-.2c-2.5,0-3.8,1.1-3.8,2.8h0c0,1.4.8,2.2,2.5,2.6l4,1c2.4.6,4,1.8,4,4.5v.2c0,3-2.3,4.9-6.4,4.9h-.2c-5,0-6.9-2.2-6.9-5.4h0Z"/>
        <path class="cls-1" d="M123.5,24.4v-8.2h-2.3v-1.9h1.8c.4,0,.6-.2.6-.6v-2.7h2.2v3.3h3.2v1.9h-3.2v7.8c0,.8.3,1.1,1.1,1.1h2.1v1.9h-2.9c-1.8,0-2.6-.8-2.6-2.6Z"/>
        <path class="cls-1" d="M130.2,20.7v-.2c0-4.1,1.9-6.4,5.7-6.4h.2c3.8,0,5.7,2.3,5.7,6.4v.2c0,4.1-1.9,6.4-5.7,6.4h-.2c-3.8,0-5.7-2.3-5.7-6.4ZM135.9,25.2h.2c2.1,0,3.3-1.4,3.3-4.5v-.2c0-3.2-1.2-4.5-3.3-4.5h-.2c-2.1,0-3.3,1.4-3.3,4.5v.2c0,3.2,1.2,4.5,3.3,4.5Z"/>
        <path class="cls-1" d="M143.8,14.3h2.2v2.3c1-1.8,1.5-2.3,3-2.3h1.6v2.2h-2c-1.5,0-2.5,1.2-2.5,3.1v7.4h-2.3v-12.7h0Z"/>
        <path class="cls-1" d="M151.2,20.7v-.2c0-4.1,2-6.4,5.6-6.4h.2c3.4,0,5.3,2,5.3,6.1s0,.7,0,.9h-8.7c0,2.8,1.2,4.2,3.3,4.2h.2c2.2,0,2.7-1.4,2.7-2.1h0c0-.1,2.4-.1,2.4-.1h0c0,1.7-1.1,4-5,4h-.2c-3.7,0-5.7-2.3-5.7-6.4ZM160,19.4h0c0-2.5-1.1-3.6-2.9-3.6h-.2c-1.8,0-3,1.1-3.2,3.6h6.4Z"/>
        <path class="cls-1" d="M30.3,16.5c0,.3-.2.5-.2.8,0,.3-.2.5-.3.8h-3.7s0,0,0,.1l10,.2c0-.6,0-1.2,0-1.8h-5.7c0-.1,0-.1,0-.1Z"/>
        <path class="cls-1" d="M22.5.6v.3c.5.2,1,.5,1.5.7l-3.6,8.9c.2,0,.4.1.6.2,0,0,0,0,0,0l3.8-9.3s0,0,0,0c-.8-.3-1.6-.6-2.3-.8Z"/>
        <path class="cls-1" d="M26.1,3c.4.4.9.8,1.3,1.2l-5.1,7.1c.2.1.4.2.5.3l5.9-8.1c-.6-.5-1.3-.9-2-1.3l-.6.8h0Z"/>
        <path class="cls-1" d="M28.8,6.1c.3.5.6,1,.8,1.5l-5.8,4.9c.1.1.2.3.4.4l7.7-6.5c-.5-.6-1-1.1-1.5-1.6l-1.5,1.3h0Z"/>
        <path class="cls-1" d="M33.2,8.3l-2.8,1.4c.1.5.3,1.1.3,1.7l-5.7,2.8c0,.1.1.2.2.4l9-4.5c-.3-.6-.6-1.2-1-1.8h0Z"/>
        <path class="cls-1" d="M30.8,13.2c0,.6,0,1.1-.1,1.7l-4.9,1.1c0,.1,0,.2,0,.3l9.8-2.2c-.1-.6-.3-1.2-.5-1.8l-4.4,1h0Z"/>
        <path class="cls-1" d="M35.8,21.1l-6.7-1.8c-.3.4-.5.9-.8,1.3l-2.5-.7c0,0,0,.1,0,.2l9.7,2.6c.1-.5.3-1.1.4-1.6h0Z"/>
        <path class="cls-1" d="M27.5,21.5c-.3.3-.6.7-1,1l-1.4-.8s0,0,0,.1l8.8,4.9c.2-.4.5-.9.7-1.3l-7-3.8h0Z"/>
        <path class="cls-1" d="M25.7,23.2c-.3.3-.7.5-1,.7l-.7-.6s0,0,0,0l7.4,6.8c.3-.3.6-.7.9-1l-6.5-6h0Z"/>
        <path class="cls-1" d="M29,32.3l-5.2-7.9c-.2.1-.4.2-.6.3,0,0-.4.2-.5.2l5.3,8c.3-.2.7-.4,1-.7h0Z"/>
        <path class="cls-1" d="M21.8,25.2c0,0-.6.2-.8.2,0,0-.2,0-.2,0l3.3,9.4c.3-.1.7-.2,1-.4l-3.3-9.3h0Z"/>
        <path class="cls-1" d="M19.8,25.7c-.3,0-.6.1-.9.1l1,10c.3,0,.6,0,.9-.1l-1-10h0Z"/>
        <path class="cls-1" d="M17.8,25.8c-.2,0-.5,0-.7,0l-1.4,9.9c.2,0,.5,0,.7,0l1.4-10h0Z"/>
        <path class="cls-1" d="M6,19.5c0-.3.2-.5.2-.8,0-.3.2-.5.3-.8h3.7s0,0,0-.1l-10-.2c0,.6,0,1.2,0,1.8h5.7c0,.1,0,.1,0,.1Z"/>
        <path class="cls-1" d="M13.8,35.4v-.3c-.5-.2-1-.5-1.5-.7l3.6-8.9c-.2,0-.4-.1-.6-.2,0,0,0,0,0,0l-3.8,9.3s0,0,0,0c.8.3,1.6.6,2.3.8Z"/>
        <path class="cls-1" d="M10.2,33c-.4-.4-.9-.8-1.3-1.2l5.1-7.1c-.2-.1-.4-.2-.5-.3l-5.9,8.1c.6.5,1.3.9,2,1.3l.6-.8h0Z"/>
        <path class="cls-1" d="M7.5,29.9c-.3-.5-.6-1-.8-1.5l5.8-4.9c-.1-.1-.2-.3-.4-.4l-7.7,6.5c.5.6,1,1.1,1.5,1.6l1.5-1.3h0Z"/>
        <path class="cls-1" d="M3.1,27.7l2.8-1.4c-.1-.5-.3-1.1-.3-1.7l5.7-2.8c0-.1-.1-.2-.2-.4l-9,4.5c.3.6.6,1.2,1,1.8Z"/>
        <path class="cls-1" d="M5.6,22.8c0-.6,0-1.1.1-1.7l4.9-1.1c0-.1,0-.2,0-.3L.7,21.9c.1.6.3,1.2.5,1.8l4.4-1h0Z"/>
        <path class="cls-1" d="M.5,14.9l6.7,1.8c.3-.4.5-.9.8-1.3l2.5.7c0,0,0-.1,0-.2L.9,13.3c-.1.5-.3,1.1-.4,1.6Z"/>
        <path class="cls-1" d="M8.8,14.5c.3-.3.6-.7,1-1l1.4.8s0,0,0-.1L2.5,9.3c-.2.4-.5.9-.7,1.3l7,3.8h0Z"/>
        <path class="cls-1" d="M10.6,12.8c.3-.3.7-.5,1-.7l.7.6s0,0,0,0l-7.4-6.8c-.3.3-.6.7-.9,1l6.5,6h0Z"/>
        <path class="cls-1" d="M7.3,3.7l5.2,7.9c.2-.1.4-.2.6-.3,0,0,.4-.2.5-.2L8.3,3c-.3.2-.7.4-1,.7Z"/>
        <path class="cls-1" d="M14.5,10.8c0,0,.6-.2.8-.2,0,0,.2,0,.2,0L12.2,1.1c-.3.1-.7.2-1,.4l3.3,9.3h0Z"/>
        <path class="cls-1" d="M16.5,10.3c.3,0,.6-.1.9-.1L16.4.2c-.3,0-.6,0-.9.1l1,10h0Z"/>
        <path class="cls-1" d="M18.5,10.2c.2,0,.5,0,.7,0L20.7.3c-.2,0-.5,0-.7,0l-1.4,10h0Z"/>
        <path class="cls-1" d="M167.1,26.9v-3.3h-1.1v-.4h2.8v.4h-1.1v3.3h-.6Z"/>
        <path class="cls-1" d="M169.2,26.9v-3.7h.8l1,3,1-3h.8v3.7h-.6v-2.9l-1,2.9h-.5l-1-2.9v2.9h-.6Z"/>
      </g>
    </g>
  </g>
</svg>